<svg width="504" height="117" viewBox="0 0 504 117" fill="none" xmlns="http://www.w3.org/2000/svg">
<rect width="504" height="117" fill="#F5F5F5"/>
<g clip-path="url(#clip0_0_1)">
<rect width="504" height="117" fill="white"/>
<path d="M28.327 45.5591C26.7985 28.3284 29.8555 -3.19351 54.312 8.56387C84.8826 23.2606 31.3841 56.2015 84.3731 61.7761C83.5579 62.1816 356.451 61.9451 493 61.7761" stroke="#141454" stroke-width="2"/>
<path d="M120.035 35H115.535V21.5H93.53V17H115.535V3.5H120.035V35ZM91.28 35H86.78V3.5H91.28V35ZM163.875 35H159.375V26H134.22V21.5H159.375V8H143.22C141.18 8 139.305 8.51 137.595 9.53C135.885 10.52 134.52 11.87 133.5 13.58C132.51 15.29 132.015 17.18 132.015 19.25V35H127.515V19.25C127.515 17.09 127.92 15.065 128.73 13.175C129.54 11.255 130.665 9.575 132.105 8.135C133.545 6.665 135.21 5.525 137.1 4.715C139.02 3.905 141.06 3.5 143.22 3.5H163.875V35ZM208.509 35H202.434L186.369 18.8L176.379 26V35H171.879V3.5H176.379V21.05L201.084 3.5H207.654L189.789 16.325L208.509 35ZM248.315 35H243.815V26H218.66V21.5H243.815V8H227.66C225.62 8 223.745 8.51 222.035 9.53C220.325 10.52 218.96 11.87 217.94 13.58C216.95 15.29 216.455 17.18 216.455 19.25V35H211.955V19.25C211.955 17.09 212.36 15.065 213.17 13.175C213.98 11.255 215.105 9.575 216.545 8.135C217.985 6.665 219.65 5.525 221.54 4.715C223.46 3.905 225.5 3.5 227.66 3.5H248.315V35ZM260.819 35H256.319V3.5H258.569C260.759 3.5 263.129 3.92 265.679 4.76C268.259 5.6 270.839 6.785 273.419 8.315C275.999 9.845 278.429 11.675 280.709 13.805C283.019 15.905 284.999 18.245 286.649 20.825V3.5H291.149V35H286.649C286.649 32.24 286.079 29.6 284.939 27.08C283.829 24.53 282.344 22.19 280.484 20.06C278.624 17.9 276.554 15.995 274.274 14.345C272.024 12.665 269.729 11.3 267.389 10.25C265.049 9.17 262.859 8.48 260.819 8.18V35ZM353.626 19.25C353.626 21.44 353.281 23.495 352.591 25.415C351.901 27.305 350.911 28.97 349.621 30.41C348.361 31.85 346.831 32.975 345.031 33.785C343.261 34.595 341.296 35 339.136 35H323.251V30.5H339.136C341.206 30.5 342.991 29.99 344.491 28.97C345.991 27.95 347.131 26.6 347.911 24.92C348.721 23.21 349.126 21.32 349.126 19.25C349.126 17.18 348.721 15.29 347.911 13.58C347.131 11.87 345.991 10.52 344.491 9.53C342.991 8.51 341.206 8 339.136 8H321.001V35H316.501V3.5H339.136C341.296 3.5 343.261 3.905 345.031 4.715C346.831 5.525 348.361 6.665 349.621 8.135C350.911 9.575 351.901 11.255 352.591 13.175C353.281 15.065 353.626 17.09 353.626 19.25ZM392.422 35H359.842V3.5H392.422V8H364.342V30.5H392.422V35ZM388.597 21.5H366.592V17H388.597V21.5ZM421.117 35H416.617V19.25C416.617 17.18 416.107 15.29 415.087 13.58C414.097 11.87 412.747 10.52 411.037 9.53C409.327 8.51 407.437 8 405.367 8H402.937V35H398.437V3.5H405.367C408.217 3.5 410.827 4.205 413.197 5.615C415.597 7.025 417.487 8.87 418.867 11.15C420.247 8.87 422.122 7.025 424.492 5.615C426.892 4.205 429.517 3.5 432.367 3.5H439.297V35H434.797V8H432.367C430.297 8 428.407 8.51 426.697 9.53C425.017 10.52 423.667 11.87 422.647 13.58C421.627 15.29 421.117 17.18 421.117 19.25V35ZM451.814 35H447.314V3.5H451.814V35ZM496.165 35H490.09L480.64 26H466.825V21.545H484.915C486.175 21.545 487.315 21.245 488.335 20.645C489.355 20.015 490.165 19.19 490.765 18.17C491.365 17.12 491.665 15.98 491.665 14.75C491.665 13.49 491.365 12.35 490.765 11.33C490.165 10.31 489.355 9.5 488.335 8.9C487.315 8.3 486.175 8 484.915 8H464.305V35H459.805V3.5H484.915C486.985 3.5 488.875 4.01 490.585 5.03C492.295 6.02 493.645 7.37 494.635 9.08C495.655 10.79 496.165 12.68 496.165 14.75C496.165 16.61 495.745 18.335 494.905 19.925C494.095 21.515 492.97 22.835 491.53 23.885C490.12 24.905 488.515 25.565 486.715 25.865L496.165 35Z" fill="#141454"/>
<path d="M96.5682 86.5455H98.6818V98.1023C98.6818 99.2955 98.4006 100.361 97.8381 101.298C97.2813 102.23 96.4943 102.966 95.4773 103.506C94.4602 104.04 93.267 104.307 91.8977 104.307C90.5284 104.307 89.3352 104.04 88.3182 103.506C87.3011 102.966 86.5114 102.23 85.9489 101.298C85.392 100.361 85.1136 99.2955 85.1136 98.1023V86.5455H87.2273V97.9318C87.2273 98.7841 87.4148 99.5426 87.7898 100.207C88.1648 100.866 88.6989 101.386 89.392 101.767C90.0909 102.142 90.9261 102.33 91.8977 102.33C92.8693 102.33 93.7045 102.142 94.4034 101.767C95.1023 101.386 95.6364 100.866 96.0057 100.207C96.3807 99.5426 96.5682 98.7841 96.5682 97.9318V86.5455ZM105.125 86.5455L109.625 93.8068H109.762L114.262 86.5455H116.75L111.262 95.2727L116.75 104H114.262L109.762 96.875H109.625L105.125 104H102.637L108.262 95.2727L102.637 86.5455H105.125ZM126.599 85.7273L120.974 106.625H119.133L124.758 85.7273H126.599ZM141.91 86.5455H144.024V98.1023C144.024 99.2955 143.743 100.361 143.18 101.298C142.623 102.23 141.837 102.966 140.819 103.506C139.802 104.04 138.609 104.307 137.24 104.307C135.871 104.307 134.677 104.04 133.66 103.506C132.643 102.966 131.854 102.23 131.291 101.298C130.734 100.361 130.456 99.2955 130.456 98.1023V86.5455H132.569V97.9318C132.569 98.7841 132.757 99.5426 133.132 100.207C133.507 100.866 134.041 101.386 134.734 101.767C135.433 102.142 136.268 102.33 137.24 102.33C138.212 102.33 139.047 102.142 139.746 101.767C140.444 101.386 140.979 100.866 141.348 100.207C141.723 99.5426 141.91 98.7841 141.91 97.9318V86.5455ZM151.559 86.5455V104H149.445V86.5455H151.559ZM170.333 104H164.946V86.5455H170.571C172.265 86.5455 173.713 86.8949 174.918 87.5938C176.123 88.2869 177.046 89.2841 177.688 90.5852C178.33 91.8807 178.651 93.4318 178.651 95.2386C178.651 97.0568 178.327 98.6222 177.679 99.9347C177.032 101.241 176.088 102.247 174.85 102.952C173.611 103.651 172.106 104 170.333 104ZM167.06 102.125H170.196C171.64 102.125 172.836 101.847 173.785 101.29C174.733 100.733 175.441 99.9403 175.907 98.9119C176.373 97.8835 176.606 96.6591 176.606 95.2386C176.606 93.8295 176.375 92.6165 175.915 91.5994C175.455 90.5767 174.767 89.7926 173.853 89.2472C172.938 88.696 171.799 88.4205 170.435 88.4205H167.06V102.125ZM183.396 104V86.5455H193.931V88.4205H185.51V94.3182H193.385V96.1932H185.51V102.125H194.067V104H183.396ZM208.486 90.9091C208.383 90.0455 207.969 89.375 207.241 88.8977C206.514 88.4205 205.622 88.1818 204.565 88.1818C203.792 88.1818 203.116 88.3068 202.537 88.5568C201.963 88.8068 201.514 89.1506 201.19 89.5881C200.872 90.0256 200.713 90.5227 200.713 91.0795C200.713 91.5455 200.824 91.946 201.045 92.2812C201.273 92.6108 201.562 92.8864 201.915 93.108C202.267 93.3239 202.636 93.5028 203.023 93.6449C203.409 93.7812 203.764 93.892 204.088 93.9773L205.861 94.4545C206.315 94.5739 206.821 94.7386 207.378 94.9489C207.94 95.1591 208.477 95.446 208.988 95.8097C209.506 96.1676 209.932 96.6278 210.267 97.1903C210.602 97.7528 210.77 98.4432 210.77 99.2614C210.77 100.205 210.523 101.057 210.028 101.818C209.54 102.58 208.824 103.185 207.881 103.634C206.943 104.082 205.804 104.307 204.463 104.307C203.213 104.307 202.131 104.105 201.216 103.702C200.307 103.298 199.591 102.736 199.068 102.014C198.551 101.293 198.258 100.455 198.19 99.5H200.372C200.429 100.159 200.65 100.705 201.037 101.136C201.429 101.562 201.923 101.881 202.52 102.091C203.122 102.295 203.77 102.398 204.463 102.398C205.27 102.398 205.994 102.267 206.636 102.006C207.278 101.739 207.787 101.369 208.162 100.898C208.537 100.42 208.724 99.8636 208.724 99.2273C208.724 98.6477 208.562 98.1761 208.238 97.8125C207.915 97.4489 207.488 97.1534 206.96 96.9261C206.432 96.6989 205.861 96.5 205.247 96.3295L203.099 95.7159C201.736 95.3239 200.656 94.7642 199.861 94.0369C199.065 93.3097 198.667 92.358 198.667 91.1818C198.667 90.2045 198.932 89.3523 199.46 88.625C199.994 87.892 200.71 87.3239 201.608 86.9205C202.511 86.5114 203.52 86.3068 204.633 86.3068C205.758 86.3068 206.758 86.5085 207.633 86.9119C208.508 87.3097 209.202 87.8551 209.713 88.5483C210.23 89.2415 210.503 90.0284 210.531 90.9091H208.486ZM217.559 86.5455V104H215.445V86.5455H217.559ZM234.928 92C234.741 91.4261 234.494 90.9119 234.187 90.4574C233.886 89.9972 233.525 89.6051 233.104 89.2812C232.69 88.9574 232.218 88.7102 231.69 88.5398C231.161 88.3693 230.582 88.2841 229.951 88.2841C228.917 88.2841 227.977 88.5511 227.13 89.0852C226.283 89.6193 225.61 90.4062 225.11 91.446C224.61 92.4858 224.36 93.7614 224.36 95.2727C224.36 96.7841 224.613 98.0597 225.119 99.0994C225.624 100.139 226.309 100.926 227.173 101.46C228.036 101.994 229.008 102.261 230.087 102.261C231.087 102.261 231.968 102.048 232.729 101.622C233.496 101.19 234.093 100.582 234.519 99.7983C234.951 99.0085 235.167 98.0795 235.167 97.0114L235.815 97.1477H230.565V95.2727H237.212V97.1477C237.212 98.5852 236.906 99.8352 236.292 100.898C235.684 101.96 234.843 102.784 233.769 103.369C232.701 103.949 231.474 104.239 230.087 104.239C228.542 104.239 227.184 103.875 226.013 103.148C224.849 102.42 223.94 101.386 223.286 100.045C222.638 98.7045 222.315 97.1136 222.315 95.2727C222.315 93.892 222.499 92.6506 222.869 91.5483C223.244 90.4403 223.772 89.4972 224.454 88.7188C225.136 87.9403 225.942 87.3438 226.874 86.929C227.806 86.5142 228.832 86.3068 229.951 86.3068C230.871 86.3068 231.729 86.446 232.525 86.7244C233.326 86.9972 234.039 87.3864 234.664 87.892C235.295 88.392 235.82 88.9915 236.241 89.6903C236.661 90.3835 236.951 91.1534 237.11 92H234.928ZM255.873 86.5455V104H253.828L244.316 90.2955H244.146V104H242.032V86.5455H244.078L253.623 100.284H253.794V86.5455H255.873ZM261.303 104V86.5455H271.837V88.4205H263.416V94.3182H271.291V96.1932H263.416V102.125H271.973V104H261.303ZM276.846 104V86.5455H282.744C284.108 86.5455 285.227 86.7784 286.102 87.2443C286.977 87.7045 287.625 88.3381 288.045 89.1449C288.466 89.9517 288.676 90.8693 288.676 91.8977C288.676 92.9261 288.466 93.8381 288.045 94.6335C287.625 95.429 286.98 96.054 286.111 96.5085C285.241 96.9574 284.131 97.1818 282.778 97.1818H278.006V95.2727H282.71C283.642 95.2727 284.392 95.1364 284.96 94.8636C285.534 94.5909 285.949 94.2045 286.204 93.7045C286.466 93.1989 286.596 92.5966 286.596 91.8977C286.596 91.1989 286.466 90.5881 286.204 90.0653C285.943 89.5426 285.525 89.1392 284.952 88.8551C284.378 88.5653 283.619 88.4205 282.676 88.4205H278.96V104H276.846ZM285.062 96.1591L289.358 104H286.903L282.676 96.1591H285.062ZM304.007 80.9205V109.625H302.303V80.9205H304.007ZM321.52 104L316.747 86.5455H318.895L322.543 100.761H322.713L326.429 86.5455H328.815L332.531 100.761H332.702L336.35 86.5455H338.497L333.725 104H331.543L327.69 90.0909H327.554L323.702 104H321.52ZM342.331 104V86.5455H352.865V88.4205H344.444V94.3182H352.319V96.1932H344.444V102.125H353.001V104H342.331ZM357.875 104V86.5455H363.977C365.193 86.5455 366.196 86.7557 366.985 87.1761C367.775 87.5909 368.363 88.1506 368.75 88.8551C369.136 89.554 369.329 90.3295 369.329 91.1818C369.329 91.9318 369.196 92.5511 368.929 93.0398C368.667 93.5284 368.321 93.9148 367.889 94.1989C367.463 94.483 367 94.6932 366.5 94.8295V95C367.034 95.0341 367.571 95.2216 368.11 95.5625C368.65 95.9034 369.102 96.392 369.465 97.0284C369.829 97.6648 370.011 98.4432 370.011 99.3636C370.011 100.239 369.812 101.026 369.414 101.724C369.017 102.423 368.389 102.977 367.531 103.386C366.673 103.795 365.556 104 364.181 104H357.875ZM359.988 102.125H364.181C365.562 102.125 366.542 101.858 367.122 101.324C367.707 100.784 368 100.131 368 99.3636C368 98.7727 367.849 98.2273 367.548 97.7273C367.247 97.2216 366.818 96.8182 366.261 96.517C365.704 96.2102 365.045 96.0568 364.284 96.0568H359.988V102.125ZM359.988 94.2159H363.909C364.545 94.2159 365.119 94.0909 365.63 93.8409C366.147 93.5909 366.556 93.2386 366.858 92.7841C367.164 92.3295 367.318 91.7955 367.318 91.1818C367.318 90.4148 367.051 89.7642 366.517 89.2301C365.983 88.6903 365.136 88.4205 363.977 88.4205H359.988V94.2159ZM380.07 104H374.684V86.5455H380.309C382.002 86.5455 383.451 86.8949 384.656 87.5938C385.86 88.2869 386.783 89.2841 387.425 90.5852C388.067 91.8807 388.388 93.4318 388.388 95.2386C388.388 97.0568 388.065 98.6222 387.417 99.9347C386.769 101.241 385.826 102.247 384.587 102.952C383.349 103.651 381.843 104 380.07 104ZM376.798 102.125H379.934C381.377 102.125 382.573 101.847 383.522 101.29C384.471 100.733 385.178 99.9403 385.644 98.9119C386.11 97.8835 386.343 96.6591 386.343 95.2386C386.343 93.8295 386.113 92.6165 385.653 91.5994C385.192 90.5767 384.505 89.7926 383.59 89.2472C382.675 88.696 381.536 88.4205 380.173 88.4205H376.798V102.125ZM393.134 104V86.5455H403.668V88.4205H395.248V94.3182H403.123V96.1932H395.248V102.125H403.804V104H393.134ZM418.223 90.9091C418.121 90.0455 417.706 89.375 416.979 88.8977C416.252 88.4205 415.36 88.1818 414.303 88.1818C413.53 88.1818 412.854 88.3068 412.274 88.5568C411.7 88.8068 411.252 89.1506 410.928 89.5881C410.61 90.0256 410.45 90.5227 410.45 91.0795C410.45 91.5455 410.561 91.946 410.783 92.2812C411.01 92.6108 411.3 92.8864 411.652 93.108C412.004 93.3239 412.374 93.5028 412.76 93.6449C413.146 93.7812 413.502 93.892 413.825 93.9773L415.598 94.4545C416.053 94.5739 416.558 94.7386 417.115 94.9489C417.678 95.1591 418.215 95.446 418.726 95.8097C419.243 96.1676 419.669 96.6278 420.004 97.1903C420.34 97.7528 420.507 98.4432 420.507 99.2614C420.507 100.205 420.26 101.057 419.766 101.818C419.277 102.58 418.561 103.185 417.618 103.634C416.681 104.082 415.541 104.307 414.2 104.307C412.95 104.307 411.868 104.105 410.953 103.702C410.044 103.298 409.328 102.736 408.806 102.014C408.288 101.293 407.996 100.455 407.928 99.5H410.11C410.166 100.159 410.388 100.705 410.774 101.136C411.166 101.562 411.661 101.881 412.257 102.091C412.86 102.295 413.507 102.398 414.2 102.398C415.007 102.398 415.732 102.267 416.374 102.006C417.016 101.739 417.524 101.369 417.899 100.898C418.274 100.42 418.462 99.8636 418.462 99.2273C418.462 98.6477 418.3 98.1761 417.976 97.8125C417.652 97.4489 417.226 97.1534 416.698 96.9261C416.169 96.6989 415.598 96.5 414.985 96.3295L412.837 95.7159C411.473 95.3239 410.394 94.7642 409.598 94.0369C408.803 93.3097 408.405 92.358 408.405 91.1818C408.405 90.2045 408.669 89.3523 409.198 88.625C409.732 87.892 410.448 87.3239 411.345 86.9205C412.249 86.5114 413.257 86.3068 414.371 86.3068C415.496 86.3068 416.496 86.5085 417.371 86.9119C418.246 87.3097 418.939 87.8551 419.45 88.5483C419.967 89.2415 420.24 90.0284 420.269 90.9091H418.223ZM427.296 86.5455V104H425.182V86.5455H427.296ZM444.666 92C444.478 91.4261 444.231 90.9119 443.924 90.4574C443.623 89.9972 443.262 89.6051 442.842 89.2812C442.427 88.9574 441.956 88.7102 441.427 88.5398C440.899 88.3693 440.319 88.2841 439.688 88.2841C438.654 88.2841 437.714 88.5511 436.867 89.0852C436.021 89.6193 435.348 90.4062 434.848 91.446C434.348 92.4858 434.098 93.7614 434.098 95.2727C434.098 96.7841 434.35 98.0597 434.856 99.0994C435.362 100.139 436.046 100.926 436.91 101.46C437.774 101.994 438.745 102.261 439.825 102.261C440.825 102.261 441.706 102.048 442.467 101.622C443.234 101.19 443.831 100.582 444.257 99.7983C444.688 99.0085 444.904 98.0795 444.904 97.0114L445.552 97.1477H440.302V95.2727H446.95V97.1477C446.95 98.5852 446.643 99.8352 446.029 100.898C445.421 101.96 444.581 102.784 443.507 103.369C442.438 103.949 441.211 104.239 439.825 104.239C438.279 104.239 436.921 103.875 435.751 103.148C434.586 102.42 433.677 101.386 433.024 100.045C432.376 98.7045 432.052 97.1136 432.052 95.2727C432.052 93.892 432.237 92.6506 432.606 91.5483C432.981 90.4403 433.51 89.4972 434.191 88.7188C434.873 87.9403 435.68 87.3438 436.612 86.929C437.544 86.5142 438.569 86.3068 439.688 86.3068C440.609 86.3068 441.467 86.446 442.262 86.7244C443.063 86.9972 443.777 87.3864 444.402 87.892C445.032 88.392 445.558 88.9915 445.978 89.6903C446.399 90.3835 446.688 91.1534 446.848 92H444.666ZM465.611 86.5455V104H463.565L454.054 90.2955H453.884V104H451.77V86.5455H453.815L463.361 100.284H463.531V86.5455H465.611ZM471.04 104V86.5455H481.574V88.4205H473.154V94.3182H481.029V96.1932H473.154V102.125H481.711V104H471.04ZM486.584 104V86.5455H492.482C493.845 86.5455 494.965 86.7784 495.84 87.2443C496.715 87.7045 497.362 88.3381 497.783 89.1449C498.203 89.9517 498.413 90.8693 498.413 91.8977C498.413 92.9261 498.203 93.8381 497.783 94.6335C497.362 95.429 496.717 96.054 495.848 96.5085C494.979 96.9574 493.868 97.1818 492.516 97.1818H487.743V95.2727H492.448C493.379 95.2727 494.129 95.1364 494.698 94.8636C495.271 94.5909 495.686 94.2045 495.942 93.7045C496.203 93.1989 496.334 92.5966 496.334 91.8977C496.334 91.1989 496.203 90.5881 495.942 90.0653C495.681 89.5426 495.263 89.1392 494.689 88.8551C494.115 88.5653 493.357 88.4205 492.413 88.4205H488.698V104H486.584ZM494.8 96.1591L499.095 104H496.641L492.413 96.1591H494.8Z" fill="#141454"/>
<rect x="6" y="45.0296" width="44" height="69" rx="19" fill="#141454" stroke="#141454" stroke-width="2"/>
<line x1="5" y1="73.5" x2="51" y2="73.5" stroke="white"/>
<line x1="28.5" y1="44.0296" x2="28.5" y2="74.0296" stroke="white"/>
<path d="M500 62C500 64.7614 497.761 67 495 67C492.239 67 490 64.7614 490 62C490 59.2386 492.239 57 495 57C497.761 57 500 59.2386 500 62Z" fill="#141454"/>
</g>
<defs>
<clipPath id="clip0_0_1">
<rect width="504" height="117" fill="white"/>
</clipPath>
</defs>
</svg>
